<svg viewBox="-0.5 -0.5 16 16" fill="none" xmlns="http://www.w3.org/2000/svg" id="Media-Image-Plus--Streamline-Iconoir" height="16" width="16"><desc>Media Image Plus Streamline Icon: https://streamlinehq.com</desc><path d="M7.858562500000001 13.595125H1.1180625c-0.23762499999999998 0 -0.43025 -0.192625 -0.43025 -0.43025V1.1180625c0 -0.23762499999999998 0.192625 -0.43025 0.43025 -0.43025h12.0468125c0.23762499999999998 0 0.43025 0.192625 0.43025 0.43025v6.740500000000001" stroke="#000000" stroke-linecap="round" stroke-linejoin="round" stroke-width="1"></path><path d="m0.6878125 10.00975 5.0195 -2.1511875 3.9438750000000002 1.792625" stroke="#000000" stroke-linecap="round" stroke-linejoin="round" stroke-width="1"></path><path d="M10.00975 5.7073125000000005c-0.7920625000000001 0 -1.4341249999999999 -0.6420625000000001 -1.4341249999999999 -1.4341249999999999s0.6420625000000001 -1.4341875000000002 1.4341249999999999 -1.4341875000000002 1.4341249999999999 0.6421250000000001 1.4341249999999999 1.4341875000000002 -0.6420625000000001 1.4341249999999999 -1.4341249999999999 1.4341249999999999Z" stroke="#000000" stroke-linecap="round" stroke-linejoin="round" stroke-width="1"></path><path d="M10.00975 12.161h2.15125m2.1511875 0h-2.1511875m0 0v-2.15125m0 2.15125v2.1511875" stroke="#000000" stroke-linecap="round" stroke-linejoin="round" stroke-width="1"></path></svg>